<svg width="70" height="70" viewBox="0 0 70 70" fill="none" xmlns="http://www.w3.org/2000/svg">
  <!-- House with heart logo - icon only version, optimized with better spacing -->
  <g transform="translate(8, 8)">
    <!-- House base -->
    <path d="M10 54 L10 32 L27 15 L42 32 L42 54 Z"
          fill="#C5D49A"
          stroke="#7C8B5A"
          stroke-width="2.5"
          stroke-linejoin="round"/>

    <!-- House roof -->
    <path d="M5 32 L27 10 L47 32 L42 32 L27 17 L10 32 Z"
          fill="#7C8B5A"/>

    <!-- Heart icon - better positioned and sized -->
    <g transform="translate(27, 20)">
      <path d="M7 4 C7 2, 5 0, 3 0 C1 0, -1 2, -1 4 C-1 2, -3 0, -5 0 C-7 0, -9 2, -9 4 C-9 9, -1 15, -1 15 C-1 15, 7 9, 7 4 Z"
            fill="#10B981"
            stroke="#059669"
            stroke-width="0.5"/>
    </g>

    <!-- Window details -->
    <rect x="15" y="38" width="5" height="5" rx="1" fill="white" opacity="0.95"/>
    <rect x="32" y="38" width="5" height="5" rx="1" fill="white" opacity="0.95"/>

    <!-- Door - better positioned -->
    <rect x="23" y="44" width="6" height="10" rx="1" fill="white" opacity="0.95"/>
    <circle cx="27" cy="49" r="0.5" fill="#7C8B5A"/>

    <!-- Decorative base -->
    <rect x="8" y="30" width="36" height="1" fill="#7C8B5A" opacity="0.8"/>
  </g>
</svg>
